<svg width="66" height="65" viewBox="0 0 66 65" fill="none" xmlns="http://www.w3.org/2000/svg">
<rect opacity="0.2" width="66" height="65" rx="20" fill="#81D066"/>
<path d="M35.7765 25.5161C35.6267 25.3329 35.3623 25.3105 35.1861 25.4663L33.2576 27.1699C33.1525 26.8808 33.0758 26.7176 33.0614 26.6876C31.8324 24.0761 32.8003 22.1921 32.846 22.1062C32.9589 21.8971 32.8879 21.6322 32.6869 21.5141C32.4855 21.3958 32.23 21.4694 32.1161 21.6787C32.0648 21.7731 30.8747 24.0253 32.312 27.0768C32.313 27.0788 32.3334 27.122 32.3674 27.2039L30.2372 26.501C30.0169 26.4285 29.7813 26.5552 29.7113 26.7843C29.6413 27.0135 29.7633 27.2583 29.9837 27.331L32.7109 28.2309C32.8488 28.7312 32.9944 29.3875 33.0972 30.1878C33.3342 32.0331 33.3856 35.042 32.2845 38.8975C32.2186 39.128 32.3451 39.3704 32.5668 39.4387C32.6066 39.4511 32.6467 39.4569 32.6862 39.4569C32.8668 39.4569 33.0336 39.3345 33.0876 39.1453C34.2382 35.1166 34.1758 31.96 33.9209 30.0214C33.8175 29.235 33.676 28.5805 33.5376 28.0654L35.7287 26.1298C35.9049 25.9742 35.9264 25.6994 35.7765 25.5161V25.5161Z" fill="#01B763"/>
<path d="M36.5208 47.1995H29.4845C28.4244 47.1995 27.5312 46.3549 27.4037 45.2319L26.2712 35.2583H39.7341L38.6016 45.2319C38.4741 46.3549 37.5809 47.1995 36.5208 47.1995Z" fill="#01B763"/>
<path d="M34.879 20.8987C35.5682 19.5157 35.4642 18.0377 34.6468 17.5975C33.8293 17.1573 32.6078 17.9216 31.9186 19.3046C31.2294 20.6876 31.3334 22.1656 32.1509 22.6058C32.9684 23.0461 34.1898 22.2817 34.879 20.8987Z" fill="#01B763"/>
<path d="M34.6478 17.6001C34.2254 17.373 33.6952 17.468 33.1863 17.803C33.7529 18.3954 33.7607 19.6842 33.1549 20.9002C32.8219 21.5687 32.3644 22.0921 31.8883 22.4056C31.9661 22.4868 32.0541 22.5553 32.1529 22.6084C32.9706 23.048 34.192 22.2832 34.881 20.9002C35.57 19.5171 35.4655 18.0397 34.6478 17.6001V17.6001Z" fill="#01B763"/>
<path d="M40.0219 35.5673H25.9838C25.4436 35.5673 25.0057 35.1121 25.0057 34.5506C25.0057 33.9891 25.4436 33.5339 25.9838 33.5339H40.0219C40.5621 33.5339 41 33.9891 41 34.5506C41 35.1121 40.5621 35.5673 40.0219 35.5673Z" fill="#01B763"/>
<path d="M37.6538 26.6268C38.9988 25.5048 39.5515 23.8988 38.8882 23.0397C38.225 22.1807 36.597 22.3939 35.252 23.516C33.907 24.638 33.3544 26.244 34.0176 27.1031C34.6809 27.9621 36.3088 27.7489 37.6538 26.6268Z" fill="#01B763"/>
<path d="M38.8836 23.0345C38.4528 22.4759 37.6145 22.3709 36.7112 22.6734C36.8865 22.7596 37.0379 22.8793 37.1576 23.0345C37.8203 23.8938 37.2674 25.4998 35.9226 26.6218C35.4519 27.0145 34.9466 27.2954 34.4601 27.4583C35.2553 27.8496 36.5466 27.5411 37.6486 26.6218C38.9934 25.4999 39.5463 23.8938 38.8836 23.0345V23.0345Z" fill="#01B763"/>
<path d="M31.5305 27.4192C31.823 26.3609 30.7167 25.1018 29.0596 24.6071C27.4025 24.1124 25.8221 24.5693 25.5297 25.6277C25.2373 26.6861 26.3436 27.9452 28.0007 28.4399C29.6577 28.9346 31.2381 28.4776 31.5305 27.4192Z" fill="#01B763"/>
<path d="M29.0596 24.6049C28.2858 24.3742 27.529 24.3511 26.9122 24.4996C27.0516 24.5281 27.1922 24.5628 27.3335 24.6049C28.991 25.0991 30.0983 26.3581 29.8067 27.4169C29.6513 27.9815 29.1294 28.375 28.425 28.5446C29.9211 28.8506 31.266 28.3855 31.5328 27.4169C31.8244 26.358 30.7171 25.0991 29.0596 24.6049V24.6049Z" fill="#01B763"/>
</svg>
